<?xml version="1.0" encoding="utf-8"?>
<!-- Generator: Adobe Illustrator 22.0.0, SVG Export Plug-In . SVG Version: 6.00 Build 0)  -->
<svg version="1.1" id="Icon_Set" xmlns="http://www.w3.org/2000/svg" xmlns:xlink="http://www.w3.org/1999/xlink" x="0px" y="0px"
	 viewBox="0 0 64 64" style="enable-background:new 0 0 64 64;" xml:space="preserve">
<style type="text/css">
	.st0{fill:#40C4FF;}
	.st1{fill:#263238;}
	.st2{fill:#FFD740;}
	.st3{fill:#FF5252;}
	.st4{fill:#4DB6AC;}
	.st5{fill:#FFFFFF;}
	.st6{fill:#4FC3F7;}
	.st7{fill:#37474F;}
</style>
<g>
	<g>
		<rect x="15.498" y="42.692" class="st4" width="33" height="4.808"/>
		<path class="st1" d="M48.498,48h-33c-0.276,0-0.5-0.224-0.5-0.5v-4.808c0-0.276,0.224-0.5,0.5-0.5h33c0.276,0,0.5,0.224,0.5,0.5
			V47.5C48.998,47.776,48.774,48,48.498,48z M15.998,47h32v-3.808h-32V47z"/>
	</g>
	<g>
		<path class="st1" d="M8.5,21C3.813,21,0,17.187,0,12.5S3.813,4,8.5,4S17,7.813,17,12.5S13.187,21,8.5,21z M8.5,5
			C4.364,5,1,8.364,1,12.5S4.364,20,8.5,20s7.5-3.364,7.5-7.5S12.636,5,8.5,5z"/>
	</g>
	<g>
		<path class="st2" d="M14.047,7.874l0.596-0.496C13.176,5.62,10.969,4.5,8.5,4.5c-4.418,0-8,3.582-8,8h0.755
			C5.929,12.5,10.455,10.863,14.047,7.874z"/>
		<path class="st1" d="M1.255,13H0.5C0.224,13,0,12.776,0,12.5C0,7.813,3.813,4,8.5,4c2.526,0,4.905,1.115,6.527,3.058
			c0.085,0.102,0.126,0.233,0.114,0.366s-0.076,0.254-0.179,0.339l-0.597,0.496C10.692,11.316,6.036,13,1.255,13z M1.017,12h0.238
			c4.548,0,8.978-1.602,12.473-4.51l0,0l0.198-0.166C12.512,5.841,10.562,5,8.5,5C4.532,5,1.274,8.097,1.017,12z"/>
	</g>
	<g>
		<path class="st1" d="M1.5,64C1.224,64,1,63.776,1,63.5V56c0-1.654,1.346-3,3-3h11.5c0.276,0,0.5,0.224,0.5,0.5S15.776,54,15.5,54
			H4c-1.103,0-2,0.897-2,2v7.5C2,63.776,1.776,64,1.5,64z"/>
	</g>
	<g>
		<path class="st1" d="M20,43.192H8.5c-1.654,0-3-1.346-3-3v-10c0-0.276,0.224-0.5,0.5-0.5s0.5,0.224,0.5,0.5v10
			c0,1.103,0.897,2,2,2h11v-4H11c-0.276,0-0.5-0.224-0.5-0.5v-7.5c0-0.276,0.224-0.5,0.5-0.5s0.5,0.224,0.5,0.5v7H20
			c0.276,0,0.5,0.224,0.5,0.5v5C20.5,42.969,20.276,43.192,20,43.192z"/>
	</g>
	<g>
		<path class="st1" d="M20.5,64c-0.276,0-0.5-0.224-0.5-0.5V56c0-1.103-0.897-2-2-2H6.5C3.468,54,1,51.533,1,48.5V28.418
			c0-1.361,0.501-2.667,1.411-3.679l3.217-3.574c0.154-0.17,0.404-0.214,0.604-0.108l4.158,2.188C13.851,25.067,16,28.627,16,32.537
			v3.155c0,0.276-0.224,0.5-0.5,0.5s-0.5-0.224-0.5-0.5v-3.155c0-3.538-1.944-6.759-5.074-8.406l-3.814-2.007l-2.956,3.285
			C2.41,26.236,2,27.305,2,28.418V48.5C2,50.981,4.019,53,6.5,53H18c1.654,0,3,1.346,3,3v7.5C21,63.776,20.776,64,20.5,64z"/>
	</g>
	<g>
		<path class="st1" d="M11,24.5h-0.338c-0.092,0-0.182-0.025-0.26-0.073l-0.197-0.125c-0.092-0.06-0.183-0.12-0.281-0.172
			l-4.156-2.188C5.603,21.856,5.5,21.686,5.5,21.5v-1.404c0-0.16,0.077-0.311,0.207-0.405c0.13-0.095,0.298-0.121,0.449-0.07
			c1.529,0.503,3.158,0.503,4.688,0c0.149-0.05,0.318-0.025,0.449,0.07c0.13,0.094,0.207,0.245,0.207,0.405V24
			C11.5,24.276,11.276,24.5,11,24.5z M6.5,21.198l3.89,2.047c0.038,0.02,0.074,0.04,0.11,0.061v-2.548c-1.316,0.32-2.684,0.32-4,0
			V21.198z"/>
	</g>
	<g>
		<path class="st1" d="M26.5,64c-0.276,0-0.5-0.224-0.5-0.5v-8.612C26,51.09,22.91,48,19.112,48H1.5C1.224,48,1,47.776,1,47.5
			S1.224,47,1.5,47h17.612C23.462,47,27,50.539,27,54.888V63.5C27,63.776,26.776,64,26.5,64z"/>
	</g>
	<g>
		<path class="st1" d="M22.008,43.192c-0.275,0-0.499-0.223-0.5-0.499c-0.001-0.276,0.223-0.5,0.499-0.501
			c1.102-0.002,1.997-0.899,1.997-2c0-0.535-0.208-1.038-0.587-1.416c-0.378-0.376-0.879-0.584-1.412-0.584
			c-0.002,0-0.003,0-0.004,0H22c-0.275,0-0.499-0.223-0.5-0.499c0.001-0.278,0.217-0.506,0.505-0.501c0.8,0,1.552,0.311,2.118,0.876
			c0.568,0.567,0.881,1.321,0.881,2.124C25.004,41.843,23.66,43.189,22.008,43.192L22.008,43.192z"/>
	</g>
	<g>
		<path class="st1" d="M55.5,21c-4.687,0-8.5-3.813-8.5-8.5S50.813,4,55.5,4S64,7.813,64,12.5S60.187,21,55.5,21z M55.5,5
			C51.364,5,48,8.364,48,12.5s3.364,7.5,7.5,7.5s7.5-3.364,7.5-7.5S59.636,5,55.5,5z"/>
	</g>
	<g>
		<path class="st2" d="M49.953,7.874l-0.596-0.496C50.824,5.62,53.031,4.5,55.5,4.5c4.418,0,8,3.582,8,8h-0.755
			C58.071,12.5,53.545,10.863,49.953,7.874z"/>
		<path class="st1" d="M63.5,13h-0.755c-4.781,0-9.438-1.684-13.111-4.741l-0.597-0.496c-0.103-0.084-0.167-0.207-0.179-0.339
			s0.029-0.264,0.114-0.366C50.595,5.115,52.974,4,55.5,4c4.687,0,8.5,3.813,8.5,8.5C64,12.776,63.776,13,63.5,13z M50.074,7.325
			l0.198,0.166l0,0C53.768,10.398,58.197,12,62.745,12h0.238c-0.258-3.903-3.516-7-7.483-7C53.438,5,51.488,5.841,50.074,7.325z"/>
	</g>
	<g>
		<path class="st1" d="M62.5,64c-0.276,0-0.5-0.224-0.5-0.5V56c0-1.103-0.897-2-2-2H48.5c-0.276,0-0.5-0.224-0.5-0.5
			s0.224-0.5,0.5-0.5H60c1.654,0,3,1.346,3,3v7.5C63,63.776,62.776,64,62.5,64z"/>
	</g>
	<g>
		<path class="st1" d="M55.5,43.192H44c-0.276,0-0.5-0.224-0.5-0.5v-5c0-0.276,0.224-0.5,0.5-0.5h8.5v-7c0-0.276,0.224-0.5,0.5-0.5
			s0.5,0.224,0.5,0.5v7.5c0,0.276-0.224,0.5-0.5,0.5h-8.5v4h11c1.103,0,2-0.897,2-2v-10c0-0.276,0.224-0.5,0.5-0.5
			s0.5,0.224,0.5,0.5v10C58.5,41.847,57.154,43.192,55.5,43.192z"/>
	</g>
	<g>
		<path class="st1" d="M43.5,64c-0.276,0-0.5-0.224-0.5-0.5V56c0-1.654,1.346-3,3-3h11.5c2.481,0,4.5-2.019,4.5-4.5V28.418
			c0-1.113-0.41-2.182-1.155-3.01l-2.956-3.285l-3.814,2.007C50.944,25.778,49,29,49,32.537v3.155c0,0.276-0.224,0.5-0.5,0.5
			s-0.5-0.224-0.5-0.5v-3.155c0-3.91,2.149-7.47,5.609-9.291l4.158-2.188c0.201-0.106,0.451-0.062,0.604,0.108l3.217,3.574
			C62.499,25.751,63,27.058,63,28.418V48.5c0,3.033-2.468,5.5-5.5,5.5H46c-1.103,0-2,0.897-2,2v7.5C44,63.776,43.776,64,43.5,64z"/>
	</g>
	<g>
		<path class="st1" d="M53.338,24.5H53c-0.276,0-0.5-0.224-0.5-0.5v-3.904c0-0.16,0.077-0.311,0.207-0.405
			c0.129-0.095,0.298-0.121,0.449-0.07c1.529,0.503,3.158,0.503,4.688,0c0.15-0.05,0.319-0.025,0.449,0.07
			c0.13,0.094,0.207,0.245,0.207,0.405V21.5c0,0.186-0.103,0.356-0.268,0.442l-4.157,2.188c-0.098,0.052-0.188,0.112-0.28,0.172
			l-0.197,0.125C53.52,24.475,53.43,24.5,53.338,24.5z M53.5,20.759v2.548c0.036-0.021,0.072-0.042,0.109-0.061l3.891-2.047v-0.439
			C56.184,21.079,54.816,21.079,53.5,20.759z"/>
	</g>
	<g>
		<path class="st1" d="M37.5,64c-0.276,0-0.5-0.224-0.5-0.5v-8.612C37,50.539,40.538,47,44.888,47H62.5c0.276,0,0.5,0.224,0.5,0.5
			S62.776,48,62.5,48H44.888C41.09,48,38,51.09,38,54.888V63.5C38,63.776,37.776,64,37.5,64z"/>
	</g>
	<g>
		<path class="st1" d="M41.992,43.192L41.992,43.192c-1.652-0.003-2.996-1.349-2.996-3c0-0.803,0.312-1.557,0.881-2.124
			c0.566-0.565,1.318-0.876,2.118-0.876c0.313-0.009,0.506,0.223,0.505,0.501c-0.001,0.276-0.225,0.499-0.5,0.499h-0.001
			c-0.001,0-0.002,0-0.004,0c-0.533,0-1.034,0.208-1.412,0.584c-0.379,0.378-0.587,0.881-0.587,1.416c0,1.101,0.896,1.998,1.997,2
			c0.276,0,0.5,0.225,0.499,0.501C42.491,42.969,42.268,43.192,41.992,43.192z"/>
	</g>
	<g>
		<path class="st1" d="M53.5,61h-5c-0.276,0-0.5-0.224-0.5-0.5s0.224-0.5,0.5-0.5h5c0.276,0,0.5,0.224,0.5,0.5S53.776,61,53.5,61z"
			/>
	</g>
	<g>
		<path class="st1" d="M56.5,61h-1c-0.276,0-0.5-0.224-0.5-0.5s0.224-0.5,0.5-0.5h1c0.276,0,0.5,0.224,0.5,0.5S56.776,61,56.5,61z"
			/>
	</g>
	<g>
		<path class="st1" d="M15.5,61h-5c-0.276,0-0.5-0.224-0.5-0.5s0.224-0.5,0.5-0.5h5c0.276,0,0.5,0.224,0.5,0.5S15.776,61,15.5,61z"
			/>
	</g>
	<g>
		<path class="st1" d="M8.5,61h-1C7.224,61,7,60.776,7,60.5S7.224,60,7.5,60h1C8.776,60,9,60.224,9,60.5S8.776,61,8.5,61z"/>
	</g>
	<g>
		<path class="st1" d="M32,17c-4.687,0-8.5-3.813-8.5-8.5S27.313,0,32,0s8.5,3.813,8.5,8.5S36.687,17,32,17z M32,1
			c-4.136,0-7.5,3.364-7.5,7.5S27.864,16,32,16s7.5-3.364,7.5-7.5S36.136,1,32,1z"/>
	</g>
	<g>
		<path class="st2" d="M37.547,3.874l0.596-0.496C36.676,1.62,34.469,0.5,32,0.5c-4.418,0-8,3.582-8,8h0.755
			C29.429,8.5,33.955,6.863,37.547,3.874z"/>
		<path class="st1" d="M24.755,9H24c-0.276,0-0.5-0.224-0.5-0.5C23.5,3.813,27.313,0,32,0c2.526,0,4.905,1.115,6.527,3.058
			c0.085,0.102,0.126,0.233,0.114,0.366s-0.076,0.254-0.179,0.339l-0.597,0.496C34.192,7.316,29.536,9,24.755,9z M24.517,8h0.238
			c4.548,0,8.978-1.602,12.473-4.51l0,0l0.198-0.166C36.012,1.841,34.062,1,32,1C28.032,1,24.774,4.097,24.517,8z"/>
	</g>
	<g>
		<path class="st1" d="M32.004,22.468c-0.166,0-0.322-0.083-0.415-0.221l-3.004-4.463c-0.056-0.083-0.085-0.18-0.085-0.279V15.91
			c0-0.167,0.083-0.322,0.221-0.415c0.138-0.092,0.313-0.111,0.468-0.048c1.797,0.731,3.817,0.735,5.624,0.006
			c0.154-0.062,0.33-0.044,0.467,0.049c0.138,0.093,0.221,0.249,0.221,0.415v1.579c0,0.099-0.029,0.196-0.085,0.278l-2.996,4.473
			C32.326,22.385,32.171,22.468,32.004,22.468C32.004,22.468,32.004,22.468,32.004,22.468z M29.5,17.353l2.503,3.719l2.497-3.728
			v-0.719c-1.623,0.501-3.381,0.498-5-0.005V17.353z"/>
	</g>
	<g>
		<path class="st1" d="M39,36.005c-0.276,0-0.5-0.224-0.5-0.5v-8c0-0.276,0.224-0.5,0.5-0.5s0.5,0.224,0.5,0.5v8
			C39.5,35.781,39.276,36.005,39,36.005z"/>
	</g>
	<g>
		<path class="st1" d="M25,36.005c-0.276,0-0.5-0.224-0.5-0.5v-8c0-0.276,0.224-0.5,0.5-0.5s0.5,0.224,0.5,0.5v8
			C25.5,35.781,25.276,36.005,25,36.005z"/>
	</g>
	<g>
		<polygon class="st0" points="34.5,34 32.01,36.5 29.5,34 31,21.968 33,21.968 		"/>
		<path class="st1" d="M32.01,37c-0.132,0-0.259-0.052-0.353-0.146l-2.51-2.5c-0.109-0.109-0.163-0.263-0.144-0.416l1.5-12.032
			c0.031-0.25,0.244-0.438,0.496-0.438h2c0.252,0,0.465,0.188,0.496,0.438l1.5,12.032c0.02,0.153-0.033,0.306-0.142,0.415l-2.49,2.5
			C32.271,36.947,32.144,37,32.01,37L32.01,37z M30.026,33.819l1.982,1.974l1.965-1.973l-1.415-11.352h-1.117L30.026,33.819z"/>
	</g>
	<g>
		<path class="st1" d="M32.004,22.468L32.004,22.468H28.5c-0.143,0-0.278-0.061-0.373-0.167c-0.095-0.106-0.14-0.248-0.124-0.389
			l0.5-4.463c0.023-0.208,0.175-0.38,0.378-0.43c0.21-0.048,0.417,0.033,0.534,0.207l2.588,3.845l2.582-3.854
			c0.116-0.174,0.331-0.256,0.533-0.208c0.204,0.05,0.355,0.222,0.379,0.43l0.5,4.472c0.016,0.142-0.029,0.283-0.124,0.389
			c-0.096,0.106-0.23,0.167-0.373,0.167H32.004C32.004,22.468,32.004,22.468,32.004,22.468z M32.94,21.468h2.001l-0.286-2.559
			L32.94,21.468z M29.06,21.468h2.005l-1.719-2.554L29.06,21.468z"/>
	</g>
	<g>
		<path class="st1" d="M44,36.005c-0.276,0-0.5-0.224-0.5-0.5V24.751c0-1.774-1.048-3.388-2.668-4.111l-5.651-2.517l-2.762,4.123
			c-0.093,0.138-0.248,0.222-0.414,0.222c-0.001,0-0.001,0-0.001,0c-0.166,0-0.322-0.083-0.415-0.221l-2.77-4.115l-5.646,2.509
			c-1.624,0.722-2.673,2.336-2.673,4.112v10.75c0,0.276-0.224,0.5-0.5,0.5s-0.5-0.224-0.5-0.5v-10.75
			c0-2.171,1.282-4.144,3.267-5.026l6.03-2.68c0.221-0.097,0.482-0.023,0.618,0.178l2.588,3.845l2.582-3.854
			c0.135-0.202,0.398-0.277,0.618-0.178l6.035,2.688c1.981,0.883,3.262,2.855,3.262,5.024v10.754
			C44.5,35.781,44.276,36.005,44,36.005z"/>
	</g>
</g>
</svg>
